<svg aria-hidden="true" style="position: absolute; width: 0; height: 0; overflow: hidden;" version="1.1" xmlns="http://www.w3.org/2000/svg" xmlns:xlink="http://www.w3.org/1999/xlink">
<defs>
<svg id="icon-play "xmlns="http://www.w3.org/2000/svg" width="44" height="44" fill="none">
  <path fill="#fff" d="M15 33V12l20 10.5L15 33Z"/>
  <circle cx="22" cy="22" r="21.5" stroke="#fff"/>
</svg>
<symbol id="icon-close" viewBox="0 0 32 32">
<path d="M1.531 0.056c-0.575 0.15-1.081 0.563-1.344 1.1-0.219 0.444-0.219 1.237-0.006 1.688 0.119 0.25 1.394 1.556 6.563 6.738l6.412 6.419-6.412 6.425c-6.969 6.975-6.662 6.637-6.731 7.425-0.063 0.788 0.331 1.5 1.050 1.894 0.381 0.206 0.444 0.225 0.937 0.219 0.425 0 0.594-0.031 0.844-0.15 0.256-0.119 1.525-1.356 6.738-6.556l6.419-6.413 6.425 6.413c5.206 5.2 6.475 6.438 6.731 6.556 0.25 0.119 0.419 0.15 0.844 0.15 0.488 0.006 0.563-0.012 0.925-0.206 0.438-0.238 0.625-0.438 0.875-0.906 0.225-0.444 0.238-1.225 0.012-1.694-0.119-0.256-1.356-1.525-6.556-6.731l-6.413-6.425 6.413-6.425c5.2-5.206 6.438-6.475 6.556-6.731 0.119-0.25 0.15-0.419 0.15-0.844 0.006-0.488-0.012-0.563-0.206-0.925-0.238-0.438-0.438-0.625-0.906-0.875-0.444-0.225-1.225-0.237-1.694-0.013-0.256 0.119-1.525 1.356-6.731 6.556l-6.425 6.413-6.419-6.412c-5.237-5.231-6.481-6.438-6.731-6.55-0.331-0.15-1.006-0.225-1.319-0.138z"></path>
</symbol>
<symbol id="icon-coin" viewBox="0 0 32 32">
<path fill="#fd9222" style="fill: var(--color1, #fd9222)" d="M16 2.667c-7.334 0-13.334 6-13.334 13.333s6 13.333 13.334 13.333c7.333 0 13.333-6 13.333-13.333s-6-13.333-13.333-13.333zM16 26.667c-5.867 0-10.667-4.8-10.667-10.667s4.8-10.667 10.667-10.667c5.866 0 10.666 4.8 10.666 10.667s-4.8 10.667-10.666 10.667z"></path>
<path fill="#fd9222" style="fill: var(--color1, #fd9222)" d="M17.733 14.667h-3.466c-0.667 0-1.2-0.534-1.2-1.2 0-0.667 0.533-1.2 1.2-1.2h4.933c0.8 0 1.333-0.534 1.333-1.334s-0.533-1.333-1.333-1.333h-1.867v-1.2c0-0.8-0.533-1.333-1.333-1.333s-1.333 0.533-1.333 1.333v1.2h-0.4c-2.135 0.002-3.865 1.732-3.867 3.867v0c0.002 2.135 1.732 3.864 3.867 3.866h3.333c0.667 0 1.2 0.534 1.2 1.2 0 0.667-0.533 1.2-1.2 1.2h-4.933c-0.8 0-1.334 0.534-1.334 1.334s0.534 1.333 1.334 1.333h2v1.2c0 0.8 0.533 1.333 1.333 1.333s1.333-0.533 1.333-1.333v-1.2h0.4c2.135-0.002 3.865-1.732 3.867-3.867v-0c-0.002-2.135-1.732-3.864-3.867-3.866h-0z"></path>
</symbol>
<symbol id="icon-flag" viewBox="0 0 32 32">
<path fill="#ffd700" style="fill: var(--color2, #ffd700)" d="M31.832 4.058h-31.59v23.509h31.59v-23.509z"></path>
<path fill="#0057b7" style="fill: var(--color3, #0057b7)" d="M0.243 4.058h31.589v11.754h-31.59v-11.754z"></path>
</symbol>
<symbol id="icon-instagram" viewBox="0 0 32 32">
<path d="M31.968 9.408c-0.074-1.7-0.35-2.87-0.744-3.882-0.424-1.112-1.053-2.060-1.849-2.839l-0.001-0.001c-0.78-0.791-1.724-1.417-2.778-1.824l-0.054-0.018c-1.020-0.394-2.18-0.67-3.88-0.744-1.716-0.080-2.262-0.1-6.602-0.1-4.346 0-4.89 0.020-6.596 0.094-1.7 0.074-2.868 0.35-3.88 0.744-1.112 0.424-2.060 1.053-2.839 1.849l-0.001 0.001c-0.792 0.78-1.419 1.724-1.826 2.778l-0.018 0.054c-0.394 1.020-0.668 2.18-0.744 3.88-0.080 1.714-0.1 2.26-0.1 6.602 0 4.346 0.020 4.89 0.094 6.596 0.074 1.7 0.35 2.87 0.744 3.882 0.406 1.076 1.038 2.038 1.85 2.838 0.8 0.812 1.77 1.444 2.832 1.844 1.020 0.394 2.18 0.67 3.882 0.744 1.706 0.076 2.25 0.094 6.596 0.094 4.344 0 4.888-0.020 6.594-0.094 1.7-0.074 2.87-0.35 3.882-0.744 2.157-0.85 3.832-2.525 4.663-4.627l0.019-0.055c0.394-1.020 0.67-2.18 0.744-3.882 0.076-1.706 0.094-2.25 0.094-6.596 0-4.344-0.006-4.888-0.080-6.594zM29.088 22.472c-0.070 1.564-0.332 2.408-0.552 2.97-0.551 1.4-1.638 2.488-3.002 3.027l-0.036 0.013c-0.562 0.218-1.412 0.48-2.968 0.548-1.688 0.076-2.194 0.094-6.464 0.094s-4.782-0.020-6.464-0.094c-1.564-0.068-2.408-0.33-2.97-0.55-0.721-0.269-1.335-0.676-1.837-1.193l-0.001-0.001c-0.516-0.504-0.923-1.118-1.183-1.804l-0.011-0.034c-0.22-0.562-0.48-1.412-0.55-2.968-0.074-1.688-0.094-2.196-0.094-6.464 0-4.27 0.020-4.782 0.094-6.464 0.070-1.564 0.332-2.408 0.55-2.97 0.256-0.694 0.664-1.324 1.2-1.838 0.52-0.532 1.144-0.938 1.84-1.194 0.56-0.22 1.412-0.48 2.968-0.55 1.688-0.074 2.194-0.094 6.464-0.094 4.276 0 4.78 0.020 6.464 0.094 1.562 0.070 2.406 0.332 2.968 0.55 0.694 0.256 1.326 0.662 1.84 1.194 0.53 0.52 0.936 1.144 1.192 1.84 0.22 0.56 0.482 1.41 0.55 2.968 0.076 1.688 0.094 2.194 0.094 6.464s-0.018 4.77-0.092 6.456z"></path>
<path d="M16.060 7.782c-4.462 0.102-8.041 3.743-8.041 8.22s3.578 8.118 8.031 8.22l0.009 0c4.462-0.102 8.041-3.743 8.041-8.22s-3.578-8.118-8.031-8.22l-0.009-0zM16.060 21.336c-2.946 0-5.334-2.388-5.334-5.334s2.388-5.334 5.334-5.334v0c2.946 0 5.334 2.388 5.334 5.334s-2.388 5.334-5.334 5.334v0zM26.524 7.458c0 1.060-0.86 1.92-1.92 1.92s-1.92-0.86-1.92-1.92v0c0-1.060 0.86-1.92 1.92-1.92s1.92 0.86 1.92 1.92v0z"></path>
</symbol>
<symbol id="icon-mastercard" viewBox="0 0 32 32">
<path fill="#ed0006" style="fill: var(--color4, #ed0006)" d="M16 22.834c-1.581 1.367-3.656 2.199-5.925 2.199-0.003 0-0.007 0-0.010 0h0.001c-5.054 0-9.15-4.12-9.15-9.204s4.096-9.204 9.15-9.204c2.264 0 4.337 0.828 5.935 2.199 1.581-1.367 3.656-2.199 5.925-2.199 0.003 0 0.007 0 0.010 0h-0c5.054 0 9.15 4.12 9.15 9.204 0 5.083-4.096 9.204-9.15 9.204-0.003 0-0.006 0-0.009 0-2.27 0-4.345-0.832-5.937-2.209l0.012 0.010z"></path>
<path fill="#f9a000" style="fill: var(--color5, #f9a000)" d="M16 22.834c1.973-1.698 3.215-4.199 3.215-6.99 0-0.005 0-0.011 0-0.016v0.001c0-0.004 0-0.010 0-0.015 0-2.791-1.242-5.291-3.203-6.98l-0.012-0.010c1.581-1.367 3.656-2.199 5.926-2.199 0.003 0 0.007 0 0.010 0h-0c5.054 0 9.15 4.12 9.15 9.204 0 5.083-4.096 9.204-9.15 9.204-0.003 0-0.006 0-0.009 0-2.27 0-4.345-0.832-5.937-2.209l0.012 0.010z"></path>
<path fill="#ff5e00" style="fill: var(--color6, #ff5e00)" d="M16 22.834c1.973-1.698 3.215-4.199 3.215-6.99 0-0.005 0-0.011 0-0.016v0.001c0-0.004 0-0.010 0-0.015 0-2.791-1.242-5.291-3.203-6.98l-0.012-0.010c-1.973 1.698-3.215 4.199-3.215 6.99 0 0.005 0 0.011 0 0.016v-0.001c0 0.005 0 0.010 0 0.016 0 2.791 1.242 5.291 3.203 6.979l0.012 0.010z"></path>
</symbol>
<symbol id="icon-menu-button" viewBox="0 0 32 32">
<path stroke-linejoin="round" stroke-linecap="round" stroke-miterlimit="4" stroke-width="2.5" d="M4 16h24M4 8h24M4 24h24"></path>
<path d="M-.221 2.077c0-1.205.977-2.182 2.182-2.182h42.965a2.182 2.182 0 0 1 0 4.364H1.961A2.182 2.182 0 0 1-.221 2.077zm0 13.538c0-1.205.977-2.182 2.182-2.182h42.965a2.182 2.182 0 0 1 0 4.364H1.961a2.182 2.182 0 0 1-2.182-2.182zm0 13.539c0-1.205.977-2.182 2.182-2.182h42.965a2.182 2.182 0 0 1 0 4.364H1.961a2.182 2.182 0 0 1-2.182-2.182z"/>
</symbol>
<symbol id="icon-menu-button-mobile" viewBox="0 0 32 32">
<path stroke-linejoin="round" stroke-linecap="round" stroke-miterlimit="4" stroke-width="2.2857" d="M4 16h24M4 8h24M4 24h24"></path>
</symbol>
<symbol id="icon-scroll-down" viewBox="0 0 32 32">
<path d="M17.488 18.933c-0.38 0.382-0.906 0.619-1.487 0.619s-1.107-0.237-1.487-0.619l-0-0-9.6-9.616c-0.384-0.414-0.931-0.673-1.538-0.673-1.158 0-2.096 0.938-2.096 2.096 0 0.603 0.254 1.146 0.662 1.529l0.001 0.001 9.616 9.618c1.137 1.136 2.708 1.839 4.442 1.839s3.305-0.703 4.442-1.839l9.616-9.618c0.357-0.375 0.576-0.883 0.576-1.443 0-1.158-0.938-2.096-2.096-2.096-0.565 0-1.077 0.223-1.454 0.587l0.001-0.001-9.6 9.616z"></path>
</symbol>
<symbol id="icon-scroll-down-mobile" viewBox="0 0 32 32">
<path d="M17.514 18.989c-0.387 0.39-0.923 0.631-1.515 0.631s-1.128-0.241-1.515-0.631l-0-0-9.77-9.792c-0.387-0.39-0.923-0.631-1.515-0.631-1.179 0-2.135 0.956-2.135 2.135 0 0.587 0.237 1.118 0.62 1.504l9.792 9.792c1.158 1.157 2.757 1.872 4.523 1.872s3.365-0.715 4.523-1.872l9.792-9.792c0.383-0.386 0.62-0.917 0.62-1.504 0-1.179-0.956-2.135-2.135-2.135-0.592 0-1.128 0.241-1.515 0.631l-0 0-9.77 9.792z"></path>
</symbol>
<symbol id="icon-semi-open-chocolate" viewBox="0 0 32 32">
<path fill="#000" style="fill: var(--color7, #000)" d="M13.822 2.413l7.527 7.536 0.080-0.080c0.154-0.151 0.366-0.244 0.599-0.244 0.227 0 0.433 0.088 0.586 0.232l-0-0 0.873 0.873c0.305 0.305 0.315 0.77 0.083 1.094l-0.004 0.007-0.143 0.192 6.16 6.16c0.55 0.55 0.55 1.43 0 1.98l-9.43 9.43c-0.55 0.55-1.43 0.55-1.98 0l-4.447-4.447c-0.155 0.195-0.393 0.319-0.659 0.319-0.233 0-0.444-0.095-0.596-0.248l-2.6-2.6c-0.151-0.154-0.244-0.366-0.244-0.599 0-0.227 0.088-0.433 0.232-0.586l-0 0 0.006-0.007 0.077-0.076-7.527-7.527c-0.55-0.55-0.55-1.43 0-1.98l9.43-9.43c0.55-0.55 1.43-0.55 1.98 0v0.001zM20.404 10.893l-1.756-1.755c-0.108-0.111-0.258-0.18-0.425-0.18s-0.317 0.069-0.425 0.18l-3.58 3.58c-0.111 0.11-0.179 0.262-0.179 0.43s0.068 0.32 0.179 0.43l1.749 1.749 0.61-0.61-1.565-1.565 3.21-3.22 1.569 1.574 0.613-0.613zM15.328 15.965l-1.754-1.754c-0.108-0.111-0.258-0.18-0.425-0.18s-0.317 0.069-0.425 0.18l-3.59 3.59c-0.24 0.23-0.24 0.61 0 0.85l1.752 1.752 0.616-0.616-1.57-1.564 3.22-3.21 1.564 1.563 0.612-0.611zM8.822 8.193l3.58 3.58c0.24 0.24 0.62 0.24 0.85-0.010l3.58-3.58c0.111-0.106 0.18-0.255 0.18-0.42 0-0 0-0 0-0v0h0.010c0-0.15-0.060-0.31-0.18-0.43l-3.58-3.58c-0.11-0.111-0.262-0.18-0.43-0.18s-0.32 0.069-0.43 0.18l-0 0-3.58 3.59c-0.24 0.23-0.24 0.61 0 0.85zM3.752 13.263l3.58 3.58c0.24 0.24 0.62 0.24 0.85 0l3.58-3.58c0.111-0.106 0.18-0.255 0.18-0.42 0-0.004-0-0.007-0-0.010v0.001h0.010c0-0.16-0.060-0.31-0.18-0.43l-3.58-3.58c-0.108-0.111-0.258-0.18-0.425-0.18s-0.317 0.069-0.425 0.18l-3.59 3.59c-0.24 0.23-0.24 0.61 0 0.85zM10.685 22.017l2.362 2.363 9.636-13.040-0.655-0.655-11.343 11.332z"></path>
<path fill="#fd9222" style="fill: var(--color1, #fd9222)" d="M13.822 2.413l7.527 7.536 0.080-0.080c0.154-0.151 0.366-0.244 0.599-0.244 0.227 0 0.433 0.088 0.586 0.232l-0-0 0.873 0.873c0.305 0.305 0.315 0.77 0.083 1.094l-0.004 0.007-0.143 0.192 6.16 6.16c0.55 0.55 0.55 1.43 0 1.98l-9.43 9.43c-0.55 0.55-1.43 0.55-1.98 0l-4.447-4.447c-0.155 0.195-0.393 0.319-0.659 0.319-0.233 0-0.444-0.095-0.596-0.248l-2.6-2.6c-0.151-0.154-0.244-0.366-0.244-0.599 0-0.227 0.088-0.433 0.232-0.586l-0 0 0.006-0.007 0.077-0.076-7.527-7.527c-0.55-0.55-0.55-1.43 0-1.98l9.43-9.43c0.55-0.55 1.43-0.55 1.98 0v0.001zM20.404 10.893l-1.756-1.755c-0.108-0.111-0.258-0.18-0.425-0.18s-0.317 0.069-0.425 0.18l-3.58 3.58c-0.111 0.11-0.179 0.262-0.179 0.43s0.068 0.32 0.179 0.43l1.749 1.749 0.61-0.61-1.565-1.565 3.21-3.22 1.569 1.574 0.613-0.613zM15.328 15.965l-1.754-1.754c-0.108-0.111-0.258-0.18-0.425-0.18s-0.317 0.069-0.425 0.18l-3.59 3.59c-0.24 0.23-0.24 0.61 0 0.85l1.752 1.752 0.616-0.616-1.57-1.564 3.22-3.21 1.564 1.563 0.612-0.611zM8.822 8.193l3.58 3.58c0.24 0.24 0.62 0.24 0.85-0.010l3.58-3.58c0.111-0.106 0.18-0.255 0.18-0.42 0-0 0-0 0-0v0h0.010c0-0.15-0.060-0.31-0.18-0.43l-3.58-3.58c-0.11-0.111-0.262-0.18-0.43-0.18s-0.32 0.069-0.43 0.18l-0 0-3.58 3.59c-0.24 0.23-0.24 0.61 0 0.85zM3.752 13.263l3.58 3.58c0.24 0.24 0.62 0.24 0.85 0l3.58-3.58c0.111-0.106 0.18-0.255 0.18-0.42 0-0.004-0-0.007-0-0.010v0.001h0.010c0-0.16-0.060-0.31-0.18-0.43l-3.58-3.58c-0.108-0.111-0.258-0.18-0.425-0.18s-0.317 0.069-0.425 0.18l-3.59 3.59c-0.24 0.23-0.24 0.61 0 0.85zM10.685 22.017l2.362 2.363 9.636-13.040-0.655-0.655-11.343 11.332z"></path>
</symbol>
<symbol id="icon-spoon" viewBox="0 0 32 32">
<path fill="#fd9222" style="fill: var(--color1, #fd9222)" d="M15.451 14.106c-0.732-0.884-1.176-2.029-1.176-3.278 0-0.001 0-0.003 0-0.004v0c0-4.324 5.18-8.642 10.362-8.642 2.861 0.001 5.18 2.321 5.181 5.182v0c0 5.182-4.318 10.364-8.646 10.364-0.001 0-0.002 0-0.003 0-1.249 0-2.395-0.444-3.287-1.184l0.009 0.007-12.759 12.761c-0.307 0.283-0.719 0.457-1.171 0.457-0.955 0-1.73-0.775-1.73-1.73 0-0.453 0.174-0.865 0.459-1.173l-0.001 0.001 12.762-12.761z"></path>
</symbol>
<symbol id="icon-twitter" viewBox="0 0 24 24">
<path d="M20.833 5.262c-0.186 0.242-0.391 0.475-0.616 0.696-0.233 0.232-0.347 0.567-0.278 0.908 0.037 0.182 0.060 0.404 0.061 0.634 0 5.256-2.429 8.971-5.81 10.898-2.647 1.509-5.938 1.955-9.222 1.12 1.245-0.361 2.46-0.921 3.593-1.69 0.147-0.099 0.273-0.243 0.352-0.421 0.224-0.505-0.003-1.096-0.508-1.32-2.774-1.233-4.13-2.931-4.769-4.593-0.417-1.084-0.546-2.198-0.52-3.227 0.021-0.811 0.138-1.56 0.278-2.182 0.394 0.343 0.803 0.706 1.235 1.038 2.051 1.577 4.624 2.479 7.395 2.407 0.543-0.015 0.976-0.457 0.976-1v-1.011c-0.002-0.179 0.009-0.357 0.034-0.533 0.113-0.806 0.504-1.569 1.162-2.141 0.725-0.631 1.636-0.908 2.526-0.846s1.753 0.463 2.384 1.188c0.252 0.286 0.649 0.416 1.033 0.304 0.231-0.067 0.463-0.143 0.695-0.228zM22.424 2.183c-0.74 0.522-1.523 0.926-2.287 1.205-0.931-0.836-2.091-1.302-3.276-1.385-1.398-0.097-2.836 0.339-3.977 1.332-1.036 0.901-1.652 2.108-1.83 3.372-0.037 0.265-0.055 0.532-0.054 0.8-1.922-0.142-3.693-0.85-5.15-1.97-0.775-0.596-1.462-1.309-2.034-2.116-0.32-0.45-0.944-0.557-1.394-0.237-0.154 0.109-0.267 0.253-0.335 0.409 0 0-0.132 0.299-0.285 0.76-0.112 0.337-0.241 0.775-0.357 1.29-0.163 0.722-0.302 1.602-0.326 2.571-0.031 1.227 0.12 2.612 0.652 3.996 0.683 1.775 1.966 3.478 4.147 4.823-1.569 0.726-3.245 1.039-4.873 0.967-0.552-0.024-1.019 0.403-1.043 0.955-0.017 0.389 0.19 0.736 0.513 0.918 4.905 2.725 10.426 2.678 14.666 0.261 4.040-2.301 6.819-6.7 6.819-12.634-0.001-0.167-0.008-0.33-0.023-0.489 1.006-1.115 1.676-2.429 1.996-3.781 0.127-0.537-0.206-1.076-0.743-1.203-0.29-0.069-0.58-0.003-0.807 0.156z"></path>
</symbol>
<symbol id="icon-twitter-mobile" viewBox="0 0 32 32">
<path stroke-linejoin="round" stroke-linecap="round" stroke-miterlimit="4" stroke-width="2.4" d="M30.667 4c-1.2 0.856-2.591 1.552-4.084 2.013l-0.103 0.027c-1.101-1.262-2.712-2.054-4.508-2.054-3.299 0-5.973 2.674-5.973 5.973 0 0.029 0 0.057 0.001 0.086l-0-0.004v1.333c-0.11 0.003-0.24 0.005-0.37 0.005-2.33 0-4.529-0.561-6.469-1.554l0.080 0.037c-2.094-1.054-3.894-3.142-5.242-5.061 0 0-5.333 12.533 6.667 17.867-2.442 1.677-5.462 2.678-8.715 2.678-0.218 0-0.435-0.005-0.65-0.013l0.031 0.001c12 6.667 26.667 0 26.667-15.333 0-0.371-0.037-0.742-0.107-1.107 1.323-1.305 2.294-2.963 2.759-4.822l0.015-0.071z"></path>
</symbol>
<symbol id="icon-logo" viewBox="0 0 28 32">
<path fill="none" stroke="#fd9222" style="stroke: var(--color1, #fd9222)" stroke-linejoin="round" stroke-linecap="round" stroke-miterlimit="4" stroke-width="2.6667" d="M20.301 23.88l-14.185-8.864M10.028 8.599l14.185 8.864M9.297 25.864l11.736-19.25M25.843 14.789c-3.040-1.899-4.234-3.384-2.278-6.592l-9.626-6.015-11.736 19.25 14.186 8.864 9.454-15.507z"></path>
</symbol>
<symbol id="icon-play" viewBox="0 0 32 32">
<path d="M10.909 24v-15.273l14.545 7.636-14.545 7.636z"></path>
<path stroke-linejoin="miter" stroke-linecap="butt" stroke-miterlimit="4" stroke-width="0.7273" d="M31.636 16c0 8.636-7.001 15.636-15.636 15.636s-15.636-7.001-15.636-15.636c0-8.636 7.001-15.636 15.636-15.636s15.636 7.001 15.636 15.636z"></path>
</symbol>
<symbol id="icon-close-black" viewBox="0 0 32 32">
<path d="M32 3.224l-3.224-3.224-12.776 12.776-12.776-12.776-3.224 3.224 12.776 12.776-12.776 12.776 3.224 3.224 12.776-12.776 12.776 12.776 3.224-3.224-12.776-12.776 12.776-12.776z"></path>
</symbol>
<symbol fill="none" xmlns="http://www.w3.org/2000/svg" viewBox="0 0 32 22" id="icon-menu">
    <path d="M1.34766 20.0431H30.8861M1.34766 10.7354H30.8861M1.34766 1.42773H30.8861" stroke="#2E2F42" stroke-width="3" stroke-linecap="round" stroke-linejoin="round"></path>
  </symbol>
</defs>
<symbol fill="none" xmlns="http://www.w3.org/2000/svg" viewBox="0 0 24 18" id="flag">
    <path d="M23.874 0.293945H0.182129V17.9251H23.874V0.293945Z" fill="#FFD700"></path>
    <path fill-rule="evenodd" clip-rule="evenodd" d="M0.182129 0.293945H23.874V9.10951H0.182129V0.293945Z" fill="#0057B7"></path>
</symbol>
</defs>
</svg>
